PathFileType	4	(X/Y/Z)	Patient4_TMGait_0pt6_01_left_05.trc.trc
DataRate	CameraRate	NumFrames	NumMarkers	Units	OrigDataRate	OrigDataStartFrame	OrigNumFrames
80.924855491329	80.924855491329	5	33	mm	80.924855491329	89	       141
Frame#	Time	Sacral			L.Shoulder			Chest			R.Shoulder			Neck			R.ASIS			L.ASIS			R.Thigh.Superior			R.Thigh.Lateral			R.Thigh.Inferior			R.Patella			L.Thigh.Superior			L.Thigh.Lateral			L.Thigh.Inferior			L.Patella			L.Shank.Superior			L.Shank.Lateral			L.Shank.Inferior			R.Shank.Superior			R.Shank.Lateral			R.Shank.Inferior			R.Heel			R.Midfoot.Superior			R.Midfoot.Lateral			R.Toe			L.Heel			L.Midfoot.Lateral			L.Midfoot.Superior			L.Toe			L.Elbow			L.Wrist			R.Elbow			R.Wrist			
		X1	Y1	Z1	X2	Y2	Z2	X3	Y3	Z3	X4	Y4	Z4	X5	Y5	Z5	X6	Y6	Z6	X7	Y7	Z7	X8	Y8	Z8	X9	Y9	Z9	X10	Y10	Z10	X11	Y11	Z11	X12	Y12	Z12	X13	Y13	Z13	X14	Y14	Z14	X15	Y15	Z15	X16	Y16	Z16	X17	Y17	Z17	X18	Y18	Z18	X19	Y19	Z19	X20	Y20	Z20	X21	Y21	Z21	X22	Y22	Z22	X23	Y23	Z23	X24	Y24	Z24	X25	Y25	Z25	X26	Y26	Z26	X27	Y27	Z27	X28	Y28	Z28	X29	Y29	Z29	X30	Y30	Z30	X31	Y31	Z31	X32	Y32	Z32	X33	Y33	Z33	

89	7.137428571429	637.962559194541	992.861901125254	483.157395686961	782.396331203175	1433.625540058691	311.259485831125	889.314236001904	1369.403784378548	471.594676367380	798.702680181317	1431.542537847315	645.671318408069	760.639972719124	1489.559643045297	465.759231903939	867.547992450782	943.060153375522	602.141537095600	852.694407091970	956.979012976563	328.321256169020	930.063241787868	750.864167004823	568.419044505367	864.707291259145	633.645674348550	630.937013366708	945.408169646416	590.213783434163	548.893481674647	955.731080712783	501.142399815908	555.915220477816	876.347283421184	728.064470053675	352.375625887121	772.969694252672	620.851420199079	293.561919222088	851.365824666165	529.958514708607	349.184384375958	836.524155371508	446.431075365431	348.526125117194	767.776023830221	390.790570607391	348.882981796182	626.483501480199	343.039288871187	308.274581459931	616.394998863594	217.983824713055	372.317132546679	935.467580367387	410.465021128371	564.107921773481	873.086891284377	300.761043014097	624.320160702859	924.304871907325	210.187830113822	562.692465078717	802.654194842060	41.373702263447	527.988400331406	970.531101652350	98.620910475670	568.227408516585	883.317585545302	36.532334299442	605.983043044904	1091.047520947660	47.887980055344	602.025101447604	427.308242816196	143.972875525927	419.110415616855	488.107144259702	96.628952099681	343.655677943357	590.940680932316	116.761146367315	362.561384811544	678.223645559558	32.283474044847	347.567799460521	815.515492131196	1079.798966382160	196.243701754111	981.800147255845	879.464636961465	222.695420350822	758.880965882073	1082.221859376167	755.745917170859	886.816695497883	854.933121406593	755.903627101272	
90	7.149785714286	638.728859361651	993.523871362938	486.174887204093	781.439095945185	1434.413105116493	313.192989809564	889.742932368555	1370.316641529570	472.679819805497	800.499336243986	1432.339808502222	647.451746498770	760.913384725331	1490.299360866118	467.773634316876	868.964588577642	943.993352394103	603.587216317332	852.538847998063	957.701295274099	329.980889313616	929.602465125335	750.221669537222	570.981972942306	862.471580982105	633.801473940662	632.829425624008	943.066785277557	589.580886247066	551.127648923677	952.319803706810	500.477476310832	557.737498987615	881.274361477391	730.049924770659	353.330223929059	781.391494375518	620.595378230433	293.897011265865	862.743058381395	531.082544134308	348.685622712708	848.732984332201	446.396328924320	347.234526822372	778.029026351717	391.113349690086	348.077277000392	634.834591519539	348.571430747029	308.044553459180	620.915269780959	223.776468083715	371.714223315125	931.198769164784	409.955641549806	565.654636286636	867.784512083929	300.619436179531	625.440803517030	918.262863669076	209.810503220989	563.498781243610	795.476593638381	41.423889730784	528.182140206829	963.529604124373	98.541905383525	568.713410474362	876.118616351674	36.523343915396	606.200970269359	1083.915305981681	47.665172103121	602.267005751472	429.399724975409	159.556398301070	418.854113192276	487.217134466706	108.308816235769	343.450416380224	591.238031611203	122.271572344081	361.991475906394	672.338659912365	31.257422468582	347.245000427682	810.050132769980	1079.725486971344	199.301278783990	965.360221502162	870.081468999062	221.954377767858	767.281913548697	1083.034202864841	760.162159215219	905.221906097909	861.926906389758	759.619489858588	
91	7.162142857143	639.253256158891	994.170449303310	489.112622582326	780.359039112843	1435.025646890109	314.989287806475	890.137603340781	1371.076401406464	473.573522023430	802.371005809697	1433.043297809279	649.086507052277	761.236462689612	1490.930526349184	469.676320837926	870.105927850263	944.744419519378	604.957698906590	852.167296809987	958.221943533352	331.541003576015	928.790776705670	749.437216739977	573.809363236990	859.684607283874	633.834294365786	634.741157076912	940.317822784491	588.854093652809	553.508642266880	948.464037533826	499.782015870741	559.641991140577	886.140086264089	732.201717806199	354.258631163280	789.882070981247	620.578656986612	294.187339165579	874.068777226026	532.611786860257	348.356207065014	861.031363598079	446.843405299128	346.307848782191	788.611390262987	391.805225354735	347.500950409686	643.809671893899	354.233191929699	307.891870142621	626.170823582442	229.863225462489	371.318910731096	926.560568572015	409.413854610942	567.234728451931	862.152970836123	300.405367294796	626.534941808305	912.015051652245	209.405699247058	564.316830676036	788.191240576587	41.462462603007	528.344447967136	956.471021861064	98.354289401943	569.239670718822	868.790333981472	36.471966042980	606.396608939852	1076.675270155893	47.319003242634	602.517370094946	432.743406574778	175.046640527331	418.834257980413	487.532342557121	120.392616076679	343.323268701868	592.454826659756	128.412435768299	361.497296154055	667.451372820597	30.487132674561	346.588707533848	804.187326364413	1079.541440592605	202.101391901721	948.273182363585	861.586315702695	221.116221006854	775.728779993503	1083.952825259742	764.454493800931	923.670678516923	869.637954618395	762.941008174036	
92	7.174500000000	639.529205083631	994.827218966670	491.940044607016	779.193902262675	1435.489600446305	316.625329070682	890.506036486548	1371.692753852117	474.267088292987	804.316056019552	1433.682079367414	650.553223361532	761.627487827194	1491.478865330389	471.445878835885	870.965565817672	945.335480864078	606.256614544661	851.580141874846	958.578396934500	332.999460493156	927.665295418270	748.581704512632	576.727943330718	856.511222458511	633.799672065350	636.613534328380	937.219104798981	588.077350572413	555.884502803793	944.225891474915	499.084395804589	561.518859369728	890.825335308552	734.557827678012	355.218802593986	798.293808768987	620.881586477256	294.481359704927	885.160835491629	534.612690291876	348.254470497901	873.264106137086	447.838979881681	345.757728315303	799.379665779805	392.923608624515	347.162996882140	653.254174943765	359.924124141156	307.861243110225	632.162425755816	236.058513443238	371.117183890524	921.619849861025	408.866957131363	568.766622784764	856.284117546451	300.160866151585	627.568755226194	905.610624406119	208.996730159086	565.104338437399	780.818023375282	41.498795573265	528.489093790224	949.350126509800	98.098746709465	569.764747387097	861.360687725944	36.396779295044	606.577401619984	1069.344706140830	46.890975462589	602.768249824394	437.339220981857	189.808989164434	419.073924339677	489.200397521323	132.379147185980	343.269771960606	594.758574209089	134.952408899848	361.036726976754	663.993195983891	30.142324637626	345.529547937051	797.922273472760	1079.286912354549	204.625099116109	930.684438615743	854.030256146166	220.215221152829	784.234627302168	1084.990512755461	768.564868225255	942.043956698467	878.048582099161	765.810815508013	
93	7.186857142857	639.560749206026	995.523611421592	494.642601971675	777.990363033119	1435.849291754438	318.084410640674	890.855835078646	1372.191086045906	474.760910144362	806.327158931874	1434.300070486150	651.832884659842	762.099270357319	1491.980817920476	473.062894607284	871.550022342284	945.800874210052	607.491554018487	850.775183179249	958.832781664942	334.362935986566	926.260217702018	747.718480083436	579.556591088574	853.092221070609	633.747844620007	638.387837505904	933.808532638997	587.286840629445	558.109623590621	939.651593227715	498.410360368768	563.257291667521	895.224574338487	737.162403408073	356.271418818372	806.498828892889	621.575911807469	294.822999046087	895.874705710857	537.142927211725	348.412981979647	885.306252744888	449.442365414098	345.561676392301	810.226225872738	394.511965173452	347.046182803909	663.038561561965	365.519004280681	307.979520593944	638.931277334423	242.140189065771	371.073244112492	916.425650380985	408.342721284489	570.173286899453	850.247961751521	299.925367783674	628.506313119690	899.088938165387	208.609561094842	565.822978361458	773.381584565090	41.540652408993	528.626922470586	942.167560699639	97.819726128607	570.253391130905	853.862499175545	36.316064634040	606.748572477344	1061.944450758132	46.431166324058	603.012868537598	443.183455063131	203.185893622564	419.562185082316	492.377981453272	143.713231879538	343.266375601273	598.351671121191	141.587272713435	360.563419378677	662.453338468655	30.357760125696	344.022885674840	791.252964113211	1079.026878174072	206.870574470051	912.734330290023	847.451525552800	219.295299711709	792.809862317817	1086.173669667528	772.436306173262	960.233168737552	887.151373096456	768.176547614863	
